<svg id="Capa_1" enable-background="new 0 0 512 512" height="512" viewBox="0 0 512 512" width="512" xmlns="http://www.w3.org/2000/svg"><g><path d="m430.836 161.157c.109-2.05.164-4.104.164-6.157 0-63.411-51.589-115-115-115-17.118 0-33.955 3.732-49.307 11.042-23.39-31.855-60.721-51.042-100.693-51.042-68.925 0-125 56.075-125 125 0 11.529 1.599 22.924 4.764 34.017-27.891 19.519-44.764 51.423-44.764 85.983 0 57.897 47.103 105 105 105h5.035c.086 14.328 2.282 28.788 6.729 42.938 2.014 6.407 7.928 10.506 14.306 10.506 1.489 0 3.006-.224 4.502-.694 7.903-2.484 12.296-10.904 9.812-18.808-12.921-41.106-2.077-85.513 28.299-115.89 21.721-21.72 50.6-33.683 81.317-33.683 19.742 0 38.71 4.968 55.52 14.266l-21.912 3.864c-8.159 1.438-13.606 9.218-12.168 17.377 1.283 7.277 7.612 12.398 14.755 12.397.864 0 1.741-.075 2.622-.23l55.709-9.823c8.159-1.438 13.606-9.218 12.168-17.377l-9.823-55.709c-1.438-8.158-9.216-13.603-17.377-12.167-8.159 1.438-13.606 9.218-12.168 17.377l3.222 18.274c-21.326-11.911-45.449-18.248-70.548-18.248-38.731 0-75.144 15.083-102.53 42.47-20.456 20.456-33.883 45.953-39.482 73.161h-7.988c-41.355 0-75-33.645-75-75 0-22.452 9.98-43.335 26.787-57.424 5.328 9.229 11.932 17.918 19.825 25.812 2.929 2.929 6.768 4.394 10.606 4.394s7.678-1.464 10.606-4.394c5.858-5.858 5.858-15.355 0-21.213-9.26-9.26-16.448-20.749-21.078-32.187-4.476-11.279-6.746-23.051-6.746-34.989 0-52.383 42.617-95 95-95 29.761 0 57.63 14.057 75.471 37.417-2.336 1.983-4.597 4.076-6.788 6.266-5.858 5.858-5.858 15.355 0 21.213 5.857 5.858 15.355 5.858 21.213 0 4.34-4.34 9.012-8.007 14.048-11.261 13.789-8.92 29.715-13.635 46.056-13.635 46.869 0 85 38.131 85 85 0 5.755-.579 11.509-1.721 17.103-2.295 9.881 6.947 19.481 16.879 17.897 35.769.085 64.842 29.211 64.842 65 0 35.841-29.159 65-65 65h-18.073c-.988-4.756-2.213-9.495-3.691-14.199-2.484-7.903-10.901-12.297-18.808-9.812-7.902 2.484-12.296 10.905-9.812 18.808 12.92 41.107 2.076 85.513-28.3 115.889-36.99 36.991-93.115 43.455-136.804 19.41l21.879-3.858c8.159-1.438 13.606-9.218 12.168-17.377-1.438-8.158-9.213-13.603-17.377-12.167l-55.709 9.823c-8.159 1.438-13.606 9.218-12.168 17.377l9.823 55.709c1.283 7.277 7.612 12.397 14.755 12.397.864 0 1.741-.075 2.622-.23 8.159-1.438 13.606-9.218 12.168-17.377l-3.237-18.354c21.856 12.165 46.207 18.261 70.564 18.261 37.132 0 74.263-14.134 102.53-42.402 27.539-27.538 42.351-64.209 42.453-101.898h15.017c52.383 0 95-42.617 95-95 0-47.338-34.801-86.7-80.164-93.843z"/></g></svg>