<svg height="512pt" viewBox="0 0 512 512.001" width="512pt" xmlns="http://www.w3.org/2000/svg"><path d="m441.359375 277.011719c4.226563-17.316407 6.375-35.117188 6.375-53.144531 0-123.441407-100.425781-223.867188-223.867187-223.867188-123.441407 0-223.867188 100.425781-223.867188 223.867188 0 123.441406 100.425781 223.867187 223.867188 223.867187 26.40625 0 52.152343-4.546875 76.683593-13.511719l73.375 73.382813c2.8125 2.816406 6.628907 4.394531 10.609375 4.394531 3.976563 0 7.792969-1.578125 10.605469-4.394531l93.207031-93.183594c15.769532-15.769531 23.652344-36.484375 23.652344-57.199219 0-40.957031-30.472656-75.171875-70.640625-80.210937zm-410.78125-38.144531h82.132813c.902343 28.5625 4.386718 56.109374 10.207031 81.390624h-67.214844c-13.992187-24.320312-22.863281-51.945312-25.125-81.390624zm25.132813-111.398438h67.207031c-5.820313 25.285156-9.304688 52.832031-10.207031 81.398438h-82.132813c2.261719-29.449219 11.132813-57.078126 25.132813-81.398438zm361.449218 81.398438h-82.132812c-.90625-28.566407-4.390625-56.113282-10.210938-81.398438h67.210938c13.996094 24.320312 22.867187 51.949219 25.132812 81.398438zm-32.625 82.210937c-13.535156-9.570313-29.664062-14.730469-46.589844-14.730469-1.90625 0-3.792968.089844-5.671874.21875 1.417968-12.285156 2.335937-24.890625 2.738281-37.699218h82.144531c-1.050781 13.710937-3.535156 27.207031-7.445312 40.332031-9.007813 2.453125-17.507813 6.457031-25.175782 11.878906zm-79.519531-82.210937h-162.296875c.96875-28.921876 4.746094-56.550782 11.035156-81.398438h140.226563c6.285156 24.847656 10.066406 52.476562 11.035156 81.398438zm-162.296875 30h162.296875c-.539063 15.957031-1.933594 31.519531-4.128906 46.441406-8.871094 4.582031-24.570313 14.859375-34.878907 34.949218h-112.253906c-6.289062-24.847656-10.066406-52.476562-11.035156-81.390624zm228.023438-141.398438h-54.292969c-5.847657-17.609375-14.421875-38.03125-26.832031-55.984375 31.675781 11.457031 59.542968 30.9375 81.125 55.984375zm-86.09375 0h-121.5625c22.296874-59.167969 49.292968-67.46875 60.78125-67.46875 11.484374 0 38.480468 8.300781 60.78125 67.46875zm-126.53125-55.984375c-12.410157 17.953125-20.984376 38.371094-26.832032 55.984375h-54.292968c21.585937-25.046875 49.449218-44.527344 81.125-55.984375zm-81.132813 308.773437h54.300781c5.847656 17.609376 14.421875 38.035157 26.835938 55.988282-31.679688-11.453125-59.550782-30.9375-81.136719-55.988282zm86.101563 0h94.324218c-1.164062 13.582032 1.085938 27.398438 6.742188 40.054688-12.511719 17.679688-26.554688 27.421875-40.285156 27.421875-11.488282 0-38.484376-8.304687-60.78125-67.476563zm304.046874 42.949219-82.597656 82.578125-82.574218-82.578125c-32.011719-32.015625-9.09375-86.855469 35.984374-86.855469 13.601563 0 26.378907 5.289063 35.980469 14.890626 2.8125 2.8125 6.628907 4.394531 10.609375 4.394531 3.976563 0 7.792969-1.582031 10.605469-4.394531 9.601563-9.601563 22.382813-14.890626 35.980469-14.890626 30.554687 0 50.945312 25.175782 50.945312 51.371094 0 12.464844-4.609375 25.164063-14.933594 35.484375zm0 0"/></svg>