<svg id="Capa_1" enable-background="new 0 0 512 512" height="512" viewBox="0 0 512 512" width="512" xmlns="http://www.w3.org/2000/svg"><g><path d="m467 33h-357c-24.813 0-45 20.187-45 45v19h-20c-24.813 0-45 20.187-45 45v292c0 24.813 20.187 45 45 45h357c24.813 0 45-20.187 45-45v-19h20c24.813 0 45-20.187 45-45v-292c0-24.813-20.187-45-45-45zm-357 30h357c8.271 0 15 6.729 15 15v141.002l-89.333-63.245c-5.659-4.005-13.325-3.613-18.545.954l-118.122 103.357-54.122-47.357c-5.43-4.75-13.472-4.964-19.146-.506l-87.732 68.933v-203.138c0-8.271 6.729-15 15-15zm307 371c0 8.271-6.729 15-15 15h-357c-8.271 0-15-6.729-15-15v-292c0-8.271 6.729-15 15-15h20v243c0 24.813 20.187 45 45 45h307zm50-49h-357c-8.271 0-15-6.729-15-15v-50.709l96.485-75.81 54.637 47.808c5.656 4.948 14.1 4.948 19.756 0l119.104-104.215 97.018 68.685v114.241c0 8.271-6.729 15-15 15z"/><path d="m256 191c25.916 0 47-21.084 47-47s-21.084-47-47-47-47 21.084-47 47 21.084 47 47 47zm0-64c9.374 0 17 7.626 17 17s-7.626 17-17 17-17-7.626-17-17 7.626-17 17-17z"/></g></svg>