<svg width="320" height="132" viewBox="0 0 320 132" fill="none" xmlns="http://www.w3.org/2000/svg">
<path d="M52.3247 31.9231H69.4423V93H52.3247V31.9231ZM35.9304 44.5403C39.895 44.5403 43.1632 45.4511 45.7348 47.2727C48.3065 49.0407 50.2084 51.6123 51.4407 54.9877C52.7265 58.363 53.3694 62.7294 53.3694 68.087C53.3694 74.034 52.7533 78.8559 51.5211 82.5526C50.3424 86.2494 48.4136 89.0889 45.7348 91.0713C43.056 93.0536 39.6003 94.0447 35.3678 94.0447C31.5639 94.0447 28.3493 93.2679 25.7241 91.7142C23.0989 90.1605 21.0897 87.6156 19.6968 84.0796C18.3038 80.5435 17.6073 75.8556 17.6073 70.0158C17.6073 64.0688 18.3038 59.2202 19.6968 55.4698C21.0897 51.7195 23.1524 48.9603 25.8848 47.1923C28.6172 45.4243 31.9657 44.5403 35.9304 44.5403ZM43.4043 55.4698C40.5111 55.4698 38.3681 56.5414 36.9751 58.6844C35.5821 60.7739 34.8856 64.3367 34.8856 69.3729C34.8856 74.3019 35.5553 77.8111 36.8947 79.9006C38.2877 81.9901 40.4576 83.0348 43.4043 83.0348C45.4401 83.0348 47.101 82.5794 48.3868 81.6686C49.7263 80.7043 50.7174 79.2309 51.3603 77.2486C52.0032 75.2663 52.3247 72.6142 52.3247 69.2925C52.3247 66.0244 52.0032 63.3991 51.3603 61.4168C50.7174 59.3809 49.7263 57.8808 48.3868 56.9164C47.0474 55.952 45.3866 55.4698 43.4043 55.4698ZM86.0036 93.8036C82.7891 93.8036 80.137 93.3482 78.0476 92.4374C75.9581 91.4731 74.4044 90.1337 73.3864 88.4192C72.4221 86.6512 71.9399 84.5885 71.9399 82.2312C71.9399 79.5524 72.69 77.2754 74.1901 75.4002C75.6902 73.4715 78.1012 71.757 81.4229 70.2569C84.7446 68.7567 89.4057 67.203 95.4063 65.5957L104.487 63.1045L104.407 69.614L97.0136 71.9445C94.8705 72.641 93.2364 73.3107 92.1113 73.9536C90.9862 74.543 90.1826 75.2663 89.7004 76.1235C89.2718 76.9271 89.0575 77.9183 89.0575 79.097C89.0575 80.6507 89.4593 81.8026 90.263 82.5526C91.1202 83.2491 92.3792 83.5974 94.0401 83.5974C95.9688 83.5974 97.6029 83.142 98.9423 82.2312C100.335 81.3204 101.407 80.0345 102.157 78.3737C102.907 76.7128 103.282 74.7573 103.282 72.5071V62.6223C103.282 60.6935 103.041 59.1666 102.559 58.0415C102.077 56.9164 101.326 56.1128 100.309 55.6306C99.3441 55.0948 98.0315 54.8269 96.3707 54.8269C93.6383 54.8269 91.6827 55.6038 90.5041 57.1575C89.3254 58.7112 88.5753 61.3632 88.2539 65.1136H73.065C73.3864 60.6132 74.3776 56.8628 76.0385 53.8625C77.7529 50.8087 80.3514 48.5049 83.8338 46.9512C87.3698 45.3439 92.0042 44.5403 97.7368 44.5403C103.202 44.5403 107.595 45.21 110.917 46.5494C114.238 47.8888 116.649 49.8711 118.149 52.4964C119.65 55.068 120.4 58.3094 120.4 62.2204V78.8559L121.123 93H104.809V74.6769H104.166C103.898 78.8559 103.148 82.3383 101.916 85.1243C100.737 87.9103 98.8619 90.0533 96.2903 91.5534C93.7186 93.0536 90.2897 93.8036 86.0036 93.8036ZM124.264 31.9231H141.462V93H124.264V31.9231ZM157.776 94.0447C153.811 94.0447 150.543 93.1339 147.971 91.3123C145.4 89.4908 143.471 86.9191 142.185 83.5974C140.953 80.2221 140.337 75.8556 140.337 70.498C140.337 64.551 140.926 59.7291 142.105 56.0324C143.337 52.3356 145.266 49.4961 147.891 47.5138C150.57 45.5314 154.052 44.5403 158.338 44.5403C162.142 44.5403 165.357 45.3171 167.982 46.8709C170.607 48.4246 172.617 50.9694 174.01 54.5055C175.403 58.0415 176.099 62.7294 176.099 68.5692C176.099 74.5162 175.403 79.3648 174.01 83.1152C172.617 86.8655 170.554 89.6247 167.821 91.3927C165.089 93.1607 161.741 94.0447 157.776 94.0447ZM150.302 83.1152C153.195 83.1152 155.338 82.0704 156.731 79.981C158.124 77.8379 158.821 74.2483 158.821 69.2121C158.821 64.2831 158.124 60.7739 156.731 58.6844C155.392 56.5949 153.249 55.5502 150.302 55.5502C148.266 55.5502 146.579 56.0324 145.239 56.9968C143.953 57.9076 142.989 59.3541 142.346 61.3364C141.703 63.3188 141.382 65.944 141.382 69.2121C141.382 72.5339 141.703 75.2127 142.346 77.2486C142.989 79.2309 143.98 80.7043 145.319 81.6686C146.659 82.633 148.32 83.1152 150.302 83.1152ZM178.438 31.9231H195.636V93H178.438V31.9231ZM211.95 94.0447C207.985 94.0447 204.717 93.1339 202.145 91.3123C199.574 89.4908 197.645 86.9191 196.359 83.5974C195.127 80.2221 194.511 75.8556 194.511 70.498C194.511 64.551 195.1 59.7291 196.279 56.0324C197.511 52.3356 199.44 49.4961 202.065 47.5138C204.744 45.5314 208.226 44.5403 212.512 44.5403C216.316 44.5403 219.531 45.3171 222.156 46.8709C224.781 48.4246 226.79 50.9694 228.183 54.5055C229.576 58.0415 230.273 62.7294 230.273 68.5692C230.273 74.5162 229.576 79.3648 228.183 83.1152C226.79 86.8655 224.728 89.6247 221.995 91.3927C219.263 93.1607 215.914 94.0447 211.95 94.0447ZM204.476 83.1152C207.369 83.1152 209.512 82.0704 210.905 79.981C212.298 77.8379 212.994 74.2483 212.994 69.2121C212.994 64.2831 212.298 60.7739 210.905 58.6844C209.566 56.5949 207.422 55.5502 204.476 55.5502C202.44 55.5502 200.752 56.0324 199.413 56.9968C198.127 57.9076 197.163 59.3541 196.52 61.3364C195.877 63.3188 195.555 65.944 195.555 69.2121C195.555 72.5339 195.877 75.2127 196.52 77.2486C197.163 79.2309 198.154 80.7043 199.493 81.6686C200.833 82.633 202.493 83.1152 204.476 83.1152ZM232.611 31.9231H249.809V93H232.611V31.9231ZM278.017 93.884C271.695 93.884 266.632 92.9732 262.828 91.1516C259.024 89.33 256.292 86.6512 254.631 83.1152C252.97 79.5791 252.139 75.1323 252.139 69.7747C252.139 61.3632 254.202 55.068 258.327 50.8891C262.506 46.6565 268.989 44.5403 277.776 44.5403C283.508 44.5403 288.196 45.4511 291.839 47.2727C295.483 49.0943 298.135 51.6659 299.795 54.9877C301.51 58.3094 302.367 62.3008 302.367 66.9619V72.4267H265.962V63.2652H289.268L286.053 68.4085C286.053 65.1403 285.785 62.5687 285.25 60.6935C284.714 58.8184 283.83 57.4522 282.598 56.5949C281.419 55.7377 279.812 55.3091 277.776 55.3091C274.829 55.3091 272.579 56.1931 271.025 57.9611C269.525 59.6756 268.775 62.4347 268.775 66.2387V70.1765C268.775 73.4982 269.096 76.0967 269.739 77.9719C270.382 79.847 271.373 81.1864 272.713 81.9901C274.106 82.7937 275.9 83.1955 278.097 83.1955C279.919 83.1955 281.419 82.9545 282.598 82.4723C283.776 81.9365 284.66 81.1596 285.25 80.1417C285.892 79.0702 286.294 77.6772 286.455 75.9628H302.206C301.778 80.1953 300.546 83.6509 298.51 86.3298C296.474 88.955 293.741 90.8837 290.312 92.116C286.884 93.2947 282.785 93.884 278.017 93.884Z" fill="black" style="fill:black;fill-opacity:1;"/>
</svg>
