<svg width="512" height="512" viewBox="0 0 512 512" fill="none" xmlns="http://www.w3.org/2000/svg">
<g clip-path="url(#clip0_3326_5316)">
<rect width="512" height="512" fill="#1C1C1C"/>
<path d="M164.638 111.191H247.088C284.19 111.191 311.811 117.513 329.95 130.155C348.089 142.522 357.159 158.738 357.159 178.801C357.159 196.115 350.563 210.819 337.371 222.911C324.454 235.004 307.551 242.974 286.664 246.822L284.191 245.173C302.33 246.272 317.995 250.395 331.187 257.541C344.654 264.411 354.823 273.343 361.694 284.337C368.565 295.055 372 306.598 372 318.966C372 334.631 367.053 348.648 357.159 361.016C347.54 373.383 333.935 383.002 316.346 389.873C298.757 396.469 278.831 399.767 256.57 399.767H164.638V111.191ZM215.345 383.277C224.689 385.476 236.919 386.575 252.035 386.575C265.227 386.575 277.869 383.002 289.962 375.857C302.33 368.711 308.513 352.496 308.513 327.211C308.513 311.271 305.215 297.804 298.619 286.81C292.298 275.542 284.053 267.297 273.884 262.075C263.715 256.579 252.997 253.83 241.729 253.83C233.758 253.83 226.201 254.243 219.055 255.067V239.814C226.75 240.913 235.682 241.463 245.851 241.463C257.119 241.463 268.113 238.302 278.831 231.981C289.55 225.66 294.909 211.231 294.909 188.695C294.909 173.579 291.886 161.211 285.839 151.592C279.793 141.698 272.373 134.69 263.578 130.567C254.783 126.17 245.851 123.971 236.782 123.971C230.186 123.971 223.315 124.383 216.169 125.208L222.353 119.849V392.347L215.345 383.277Z" fill="#EEEEEE"/>
</g>
<defs>
<clipPath id="clip0_3326_5316">
<rect width="512" height="512" rx="96" fill="white"/>
</clipPath>
</defs>
</svg>
