<svg width="843" height="182" viewBox="0 0 843 182" fill="none" xmlns="http://www.w3.org/2000/svg">
<path d="M0.196045 3.91999H49.9332C72.3149 3.91999 88.9768 7.73317 99.919 15.3595C110.861 22.8201 116.332 32.6017 116.332 44.7045C116.332 55.1493 112.353 64.019 104.395 71.3138C96.6032 78.6086 86.4071 83.4165 73.807 85.7376L72.3149 84.7428C83.2571 85.406 92.7071 87.8929 100.665 92.2034C108.789 96.3482 114.923 101.736 119.068 108.368C123.213 114.834 125.285 121.797 125.285 129.258C125.285 138.708 122.301 147.163 116.332 154.624C110.53 162.084 102.323 167.887 91.7124 172.032C81.1018 176.011 69.082 178 55.653 178H0.196045V3.91999ZM30.7844 168.053C36.4213 169.379 43.7989 170.042 52.9174 170.042C60.8754 170.042 68.5017 167.887 75.7965 163.576C83.2571 159.266 86.9874 149.484 86.9874 134.231C86.9874 124.615 84.9979 116.492 81.0189 109.86C77.2057 103.063 72.232 98.089 66.0978 94.939C59.9635 91.6232 53.4977 89.9653 46.7003 89.9653C41.8924 89.9653 37.3331 90.2139 33.0226 90.7113V81.5099C37.6647 82.1731 43.0529 82.5047 49.1871 82.5047C55.9845 82.5047 62.6162 80.5981 69.082 76.7849C75.5478 72.9717 78.7807 64.2677 78.7807 50.6729C78.7807 41.5544 76.957 34.0939 73.3096 28.2912C69.6623 22.3227 65.1859 18.0951 59.8806 15.6082C54.5753 12.9556 49.1871 11.6292 43.716 11.6292C39.7371 11.6292 35.5923 11.8779 31.2818 12.3753L35.012 9.14239V173.524L30.7844 168.053ZM213.5 181.482C197.75 181.482 183.658 177.834 171.224 170.539C158.955 163.079 149.339 152.883 142.376 139.951C135.579 126.854 132.18 112.181 132.18 95.9337C132.18 78.6915 136.076 62.7756 143.868 48.1861C151.661 33.4307 162.271 21.7425 175.7 13.1214C189.295 4.50026 204.299 0.189706 220.712 0.189706C235.633 0.189706 249.145 3.91999 261.248 11.3806C273.351 18.6753 282.801 29.0372 289.598 42.4663C296.396 55.7295 299.794 70.8993 299.794 87.9758C299.794 105.715 296.064 121.714 288.603 135.972C281.309 150.064 271.03 161.172 257.766 169.296C244.669 177.42 229.914 181.482 213.5 181.482ZM238.12 165.566C246.741 165.566 253.787 163.493 259.259 159.349C264.73 155.038 268.626 149.318 270.947 142.189C273.434 135.06 274.677 127.102 274.677 118.315C274.677 101.571 270.698 85.3231 262.74 69.573C254.948 53.8229 244.835 41.14 232.4 31.5241C220.132 21.7425 207.615 16.7688 194.849 16.603C186.559 16.603 179.679 18.8411 174.208 23.3175C168.903 27.628 165.007 33.3478 162.52 40.4768C160.033 47.6058 158.79 55.5637 158.79 64.3506C158.79 80.5981 162.52 96.5969 169.98 112.347C177.607 127.931 187.554 140.697 199.823 150.645C212.091 160.592 224.857 165.566 238.12 165.566ZM322.108 3.91999H371.845C394.227 3.91999 410.889 7.73317 421.831 15.3595C432.773 22.8201 438.244 32.6017 438.244 44.7045C438.244 55.1493 434.265 64.019 426.307 71.3138C418.515 78.6086 408.319 83.4165 395.719 85.7376L394.227 84.7428C405.169 85.406 414.619 87.8929 422.577 92.2034C430.701 96.3482 436.835 101.736 440.98 108.368C445.125 114.834 447.197 121.797 447.197 129.258C447.197 138.708 444.213 147.163 438.244 154.624C432.442 162.084 424.235 167.887 413.624 172.032C403.014 176.011 390.994 178 377.565 178H322.108V3.91999ZM352.696 168.053C358.333 169.379 365.711 170.042 374.829 170.042C382.787 170.042 390.414 167.887 397.708 163.576C405.169 159.266 408.899 149.484 408.899 134.231C408.899 124.615 406.91 116.492 402.931 109.86C399.118 103.063 394.144 98.089 388.01 94.939C381.876 91.6232 375.41 89.9653 368.612 89.9653C363.804 89.9653 359.245 90.2139 354.935 90.7113V81.5099C359.577 82.1731 364.965 82.5047 371.099 82.5047C377.897 82.5047 384.528 80.5981 390.994 76.7849C397.46 72.9717 400.693 64.2677 400.693 50.6729C400.693 41.5544 398.869 34.0939 395.222 28.2912C391.574 22.3227 387.098 18.0951 381.793 15.6082C376.487 12.9556 371.099 11.6292 365.628 11.6292C361.649 11.6292 357.504 11.8779 353.194 12.3753L356.924 9.14239V173.524L352.696 168.053ZM467.521 3.91999H517.258C539.64 3.91999 556.302 7.73317 567.244 15.3595C578.186 22.8201 583.657 32.6017 583.657 44.7045C583.657 55.1493 579.678 64.019 571.721 71.3138C563.928 78.6086 553.732 83.4165 541.132 85.7376L539.64 84.7428C550.582 85.406 560.032 87.8929 567.99 92.2034C576.114 96.3482 582.248 101.736 586.393 108.368C590.538 114.834 592.61 121.797 592.61 129.258C592.61 138.708 589.626 147.163 583.657 154.624C577.855 162.084 569.648 167.887 559.038 172.032C548.427 176.011 536.407 178 522.978 178H467.521V3.91999ZM498.11 168.053C503.746 169.379 511.124 170.042 520.243 170.042C528.2 170.042 535.827 167.887 543.122 163.576C550.582 159.266 554.312 149.484 554.312 134.231C554.312 124.615 552.323 116.492 548.344 109.86C544.531 103.063 539.557 98.089 533.423 94.939C527.289 91.6232 520.823 89.9653 514.025 89.9653C509.217 89.9653 504.658 90.2139 500.348 90.7113V81.5099C504.99 82.1731 510.378 82.5047 516.512 82.5047C523.31 82.5047 529.941 80.5981 536.407 76.7849C542.873 72.9717 546.106 64.2677 546.106 50.6729C546.106 41.5544 544.282 34.0939 540.635 28.2912C536.987 22.3227 532.511 18.0951 527.206 15.6082C521.9 12.9556 516.512 11.6292 511.041 11.6292C507.062 11.6292 502.917 11.8779 498.607 12.3753L502.337 9.14239V173.524L498.11 168.053ZM612.934 3.91999H647.75V178H612.934V3.91999ZM694.253 40.2281L692.76 39.2334L662.172 3.67131L707.433 3.91999L833.019 163.825L829.538 168.55C823.569 111.186 814.202 60.4545 801.436 16.3543C800.441 12.7069 800.773 9.63976 802.431 7.1529C804.255 4.66605 807.156 3.42262 811.135 3.42262L842.221 3.91999L833.517 178H802.431L694.253 40.2281ZM691.268 26.7991H693.755C697.734 54.4861 701.796 79.5205 705.941 101.902C710.251 124.284 715.308 145.256 721.111 164.82C722.105 168.799 721.691 172.032 719.867 174.518C718.044 176.839 715.225 178 711.412 178H680.326L691.268 26.7991Z" fill="#1C1C1C"/>
</svg>
