<svg width="84" height="84" viewBox="0 0 84 84" fill="none" xmlns="http://www.w3.org/2000/svg">
<g clip-path="url(#clip0_2800_1077)">
<path d="M40.0113 43.9887C41.1096 45.087 42.8904 45.087 43.9887 43.9887C45.0871 42.8903 45.0871 41.1095 43.9887 40.0112C42.8904 38.9128 41.1096 38.9128 40.0113 40.0112C38.9129 41.1095 38.9129 42.8903 40.0113 43.9887Z" fill="black"/>
<path d="M74.602 26.633C73.9327 25.2316 72.2534 24.6378 70.8519 25.3076C69.4502 25.9771 68.8568 27.6561 69.5263 29.0577C74.779 40.0534 73.156 52.2088 65.3835 61.4056L63.4784 59.5005C62.38 58.4021 60.5993 58.4021 59.5009 59.5005C58.4025 60.5989 58.4025 62.3796 59.5009 63.4779L61.4011 65.3782C50.0619 74.8855 33.9381 74.8855 22.5989 65.3782L24.4991 63.4779C25.5975 62.3796 25.5975 60.5989 24.4991 59.5005C23.4007 58.4021 21.62 58.4021 20.5216 59.5005L18.6214 61.4007C9.11404 50.0615 9.11403 33.9376 18.6214 22.5984L20.5216 24.4987C21.62 25.5971 23.4007 25.5971 24.4991 24.4987C25.5975 23.4003 25.5975 21.6196 24.4991 20.5212L22.5982 18.6203C33.938 9.11232 50.0633 9.11063 61.4028 18.6193L59.5009 20.5212C58.4025 21.6196 58.4025 23.4003 59.5009 24.4987C60.5993 25.5971 62.38 25.5971 63.4784 24.4987L67.4558 20.5212C68.5542 19.4228 68.5542 17.6421 67.4558 16.5437C53.1815 2.26937 30.8184 2.26947 16.5442 16.5437C2.26989 30.818 2.26979 53.1811 16.5442 67.4554C30.8185 81.7298 53.1816 81.7297 67.4558 67.4554C78.7607 56.1505 81.0648 40.1622 74.602 26.633Z" fill="black"/>
<path d="M46.3482 26.9784L35.8243 30.4864C33.3181 31.3218 31.3232 33.3167 30.4879 35.8228L26.9798 46.3467C25.9627 49.3981 26.7438 52.7067 29.0182 54.9811C31.2926 57.2555 34.6012 58.0366 37.6526 57.0195L48.1765 53.5114C50.6826 52.6761 52.6775 50.6812 53.5129 48.175L57.0209 37.6511C58.0381 34.5997 57.257 31.2912 54.9826 29.0167C52.7081 26.7423 49.3996 25.9612 46.3482 26.9784ZM51.6845 35.8724L48.1764 46.3964C47.8981 47.2318 47.233 47.8968 46.3977 48.1751L35.8738 51.6832C34.8412 52.0274 33.7653 51.7735 32.9956 51.0037C32.2258 50.234 31.9719 49.1581 32.3161 48.1255L35.8243 37.6015C36.1026 36.7662 36.7676 36.1011 37.603 35.8228L48.1269 32.3148C49.1594 31.9705 50.2353 32.2245 51.0051 32.9942C51.7748 33.764 52.0288 34.8399 51.6845 35.8724Z" fill="black"/>
</g>
<defs>
<clipPath id="clip0_2800_1077">
<rect width="84" height="84" fill="white"/>
</clipPath>
</defs>
</svg>
