<svg width="84" height="84" viewBox="0 0 84 84" fill="none" xmlns="http://www.w3.org/2000/svg">
<path d="M25.125 34.125C26.6783 34.125 27.9375 32.8658 27.9375 31.3125C27.9375 29.7592 26.6783 28.5 25.125 28.5C23.5717 28.5 22.3125 29.7592 22.3125 31.3125C22.3125 32.8658 23.5717 34.125 25.125 34.125Z" fill="black"/>
<path d="M27.9375 48.1875V42.5625C27.9375 41.0092 26.6783 39.75 25.125 39.75C23.5717 39.75 22.3125 41.0092 22.3125 42.5625V48.1875C22.3125 49.7408 23.5717 51 25.125 51C26.6783 51 27.9375 49.7408 27.9375 48.1875Z" fill="black"/>
<path d="M69.5625 56.625H39.1875V36.9375C39.1875 35.3867 40.4492 34.125 42 34.125H53.25C54.8008 34.125 56.0625 35.3867 56.0625 36.9375C56.0625 40.604 58.414 43.7301 61.6875 44.8913V48.1875C61.6875 49.7408 62.9467 51 64.5 51C66.0533 51 67.3125 49.7408 67.3125 48.1875V44.8913C70.586 43.7303 72.9375 40.604 72.9375 36.9375V25.6875C72.9375 22.021 70.586 18.8949 67.3125 17.7338V14.4375C67.3125 12.8842 66.0533 11.625 64.5 11.625C62.9467 11.625 61.6875 12.8842 61.6875 14.4375V17.25H56.0625V14.4375C56.0625 12.8842 54.8033 11.625 53.25 11.625C51.6967 11.625 50.4375 12.8842 50.4375 14.4375V17.25H39.1875V14.4375C39.1875 9.78506 35.4024 6 30.75 6H25.125C20.4726 6 16.6875 9.78506 16.6875 14.4375V17.7338C13.414 18.8949 11.0625 22.021 11.0625 25.6875V48.1875C11.0625 49.7408 12.3217 51 13.875 51C15.4283 51 16.6875 49.7408 16.6875 48.1875V25.6875C16.6875 24.1367 17.9492 22.875 19.5 22.875H64.5C66.0508 22.875 67.3125 24.1367 67.3125 25.6875V36.9375C67.3125 38.4883 66.0508 39.75 64.5 39.75C62.9492 39.75 61.6875 38.4883 61.6875 36.9375C61.6875 32.2851 57.9024 28.5 53.25 28.5H42C37.3476 28.5 33.5625 32.2851 33.5625 36.9375V56.625H14.4375C9.78506 56.625 6 60.4101 6 65.0625V69.5625C6 74.2149 9.78506 78 14.4375 78H69.5625C74.2149 78 78 74.2149 78 69.5625V65.0625C78 60.4101 74.2149 56.625 69.5625 56.625ZM25.125 11.625H30.75C32.3008 11.625 33.5625 12.8867 33.5625 14.4375V17.25H22.3125V14.4375C22.3125 12.8867 23.5742 11.625 25.125 11.625ZM72.375 69.5625C72.375 71.1133 71.1133 72.375 69.5625 72.375H14.4375C12.8867 72.375 11.625 71.1133 11.625 69.5625V65.0625C11.625 63.5117 12.8867 62.25 14.4375 62.25H69.5625C71.1133 62.25 72.375 63.5117 72.375 65.0625V69.5625Z" fill="black"/>
</svg>
