<svg width="84" height="84" viewBox="0 0 84 84" fill="none" xmlns="http://www.w3.org/2000/svg">
<path d="M25.125 28.5C26.6783 28.5 27.9375 27.2408 27.9375 25.6875C27.9375 24.1342 26.6783 22.875 25.125 22.875C23.5717 22.875 22.3125 24.1342 22.3125 25.6875C22.3125 27.2408 23.5717 28.5 25.125 28.5Z" fill="black"/>
<path d="M42 34.125C43.5533 34.125 44.8125 32.8658 44.8125 31.3125C44.8125 29.7592 43.5533 28.5 42 28.5C40.4467 28.5 39.1875 29.7592 39.1875 31.3125C39.1875 32.8658 40.4467 34.125 42 34.125Z" fill="black"/>
<path d="M42 22.875C43.5533 22.875 44.8125 21.6158 44.8125 20.0625C44.8125 18.5092 43.5533 17.25 42 17.25C40.4467 17.25 39.1875 18.5092 39.1875 20.0625C39.1875 21.6158 40.4467 22.875 42 22.875Z" fill="black"/>
<path d="M58.875 28.5C60.4283 28.5 61.6875 27.2408 61.6875 25.6875C61.6875 24.1342 60.4283 22.875 58.875 22.875C57.3217 22.875 56.0625 24.1342 56.0625 25.6875C56.0625 27.2408 57.3217 28.5 58.875 28.5Z" fill="black"/>
<path d="M72.8194 17.9023C72.8194 17.9023 47.4129 7.08042 47.4062 7.0776C45.6906 6.36253 43.8717 6 42 6C40.1283 6 38.3094 6.36253 36.5938 7.0776C36.5871 7.08042 11.1805 17.9023 11.1805 17.9023C8.03288 19.2199 6 22.2742 6 25.6874C6 29.1006 8.03288 32.1548 11.1805 33.4725C11.1805 33.4725 36.5871 44.2945 36.5938 44.2973C38.3096 45.0123 40.1284 45.3748 42 45.3748C43.8716 45.3748 45.6904 45.0123 47.4062 44.2973C47.4129 44.2945 72.8171 33.4735 72.8171 33.4735C75.9659 32.1561 78 29.1012 78 25.6874C78 22.2742 75.9671 19.2199 72.8194 17.9023ZM70.6428 28.2857C70.636 28.2885 45.233 39.1091 45.233 39.1091C44.2091 39.5342 43.1215 39.7498 42 39.7498C40.8785 39.7498 39.7909 39.5342 38.7672 39.1091C38.7672 39.1091 13.3638 28.2887 13.3572 28.2857C12.3049 27.8472 11.625 26.8273 11.625 25.6874C11.625 24.5475 12.3049 23.5275 13.3571 23.0891C13.3638 23.0863 38.7666 12.2659 38.7666 12.2659C39.7906 11.8405 40.8784 11.625 42 11.625C43.1215 11.625 44.2089 11.8405 45.2325 12.2657C45.2325 12.2657 70.6359 23.0863 70.6426 23.0891C71.6951 23.5275 72.375 24.5475 72.375 25.6874C72.375 26.8273 71.6951 27.8472 70.6428 28.2857Z" fill="black"/>
<path d="M74.6642 38.3161C73.131 38.5648 72.0897 40.0095 72.3384 41.5427C72.3628 41.6919 72.375 41.8456 72.375 41.9996C72.375 43.1395 71.6951 44.1594 70.6428 44.5979C70.636 44.6007 45.2316 55.4219 45.2316 55.4219C44.2081 55.8467 43.1209 56.062 42 56.062C40.8791 56.062 39.7919 55.8467 38.7686 55.4219C38.7686 55.4219 13.364 44.6007 13.3572 44.5979C12.3049 44.1594 11.625 43.1395 11.625 41.9996C11.625 41.8457 11.6372 41.6919 11.6616 41.5424C11.9098 40.009 10.8679 38.5648 9.33464 38.3166C7.80112 38.0684 6.35691 39.1102 6.10884 40.6435C6.0367 41.0893 6 41.5455 6 41.9996C6 45.4135 8.034 48.4683 11.1826 49.7855C11.1826 49.7855 36.5869 60.6066 36.5937 60.6094C38.3096 61.3244 40.1284 61.687 42 61.687C43.8716 61.687 45.6904 61.3244 47.4062 60.6095C47.4129 60.6067 72.8171 49.7857 72.8171 49.7857C75.9659 48.4683 78 45.4134 78 41.9996C78 41.5447 77.9633 41.0879 77.891 40.6417C77.6421 39.1085 76.1963 38.0672 74.6642 38.3161Z" fill="black"/>
<path d="M74.6642 54.6295C73.131 54.8783 72.0897 56.3229 72.3384 57.8561C72.3628 58.0053 72.375 58.159 72.375 58.313C72.375 59.4529 71.6951 60.4729 70.6428 60.9113C70.636 60.9141 45.2316 71.7353 45.2316 71.7353C44.2081 72.1601 43.1209 72.3754 42 72.3754C40.8791 72.3754 39.7919 72.1601 38.7686 71.7353C38.7686 71.7353 13.364 60.9141 13.3572 60.9113C12.3049 60.4729 11.625 59.4529 11.625 58.313C11.625 58.1592 11.6372 58.0053 11.6616 57.8558C11.9098 56.3225 10.8679 54.8783 9.33464 54.6301C7.80112 54.3819 6.35691 55.4236 6.10884 56.957C6.0367 57.4028 6 57.8589 6 58.313C6 61.7269 8.034 64.7817 11.1826 66.099C11.1826 66.099 36.5869 76.92 36.5937 76.9228C38.3096 77.6379 40.1284 78.0004 42 78.0004C43.8716 78.0004 45.6904 77.6379 47.4062 76.9229C47.4129 76.9201 72.8171 66.0991 72.8171 66.0991C75.9659 64.7817 78 61.7268 78 58.313C78 57.8581 77.9633 57.4013 77.891 56.9551C77.6421 55.4219 76.1963 54.3807 74.6642 54.6295Z" fill="black"/>
</svg>
